<svg xmlns="http://www.w3.org/2000/svg" width="512" height="512" viewBox="0 0 512 512">
      
        <defs>
          <linearGradient id="bgGradient" x1="0%" y1="0%" x2="100%" y2="100%">
            <stop offset="0%" style="stop-color:#6366f1;stop-opacity:1" />
            <stop offset="100%" style="stop-color:#a855f7;stop-opacity:1" />
          </linearGradient>
        </defs>
      
      <g fill="url(#bgGradient)" >
        <circle cx="256" cy="256" r="256" />
      </g>
      <svg x="76.80000000000001" y="76.80000000000001" width="358.4" height="358.4" viewBox="0 0 24 24" fill="none" stroke="#ffffff" stroke-width="2" stroke-linecap="round" stroke-linejoin="round">
        <rect width="8" height="4" x="8" y="2" rx="1" ry="1"></rect><path d="M16 4h2a2 2 0 0 1 2 2v14a2 2 0 0 1-2 2H6a2 2 0 0 1-2-2V6a2 2 0 0 1 2-2h2"></path><path d="M12 11h4"></path><path d="M12 16h4"></path><path d="M8 11h.01"></path><path d="M8 16h.01"></path>
      </svg>
    </svg>